# Blender 4.2.0
# www.blender.org
mtllib Enemy_Riot_Shield.mtl
o Cube
v 38.078743 90.000000 -37.500000
v 38.078743 -15.000000 -37.500000
v 38.078743 90.000000 37.500000
v 38.078743 -15.000000 37.500000
v 8.078740 90.000000 -37.500000
v 8.078740 -15.000000 -37.500000
v 8.078740 90.000000 37.500000
v 8.078740 -15.000000 37.500000
v 38.078743 63.750000 -37.500000
v 38.078743 37.500000 -37.500000
v 38.078743 11.250000 -37.500000
v 8.078740 11.250000 37.500000
v 8.078740 37.500000 37.500000
v 8.078740 63.750000 37.500000
v 38.078743 63.750000 37.500000
v 38.078743 37.500000 37.500000
v 38.078743 11.250000 37.500000
v 8.078740 63.750000 -37.500000
v 8.078740 37.500000 -37.500000
v 8.078740 11.250000 -37.500000
v -15.000000 -15.000000 -18.750000
v -15.000000 -15.000000 0.000000
v -15.000000 -15.000000 18.750000
v 15.000000 90.000000 -18.750000
v 6.186884 90.000000 0.000000
v 15.000000 90.000000 18.750000
v -15.000000 90.000000 18.750000
v -15.000000 90.000000 0.000000
v -15.000000 90.000000 -18.750000
v 15.000000 -15.000000 18.750000
v 6.186884 -15.000000 0.000000
v 15.000000 -15.000000 -18.750000
v 15.000000 11.250000 -18.750000
v 6.186884 11.250000 0.000000
v 15.000000 11.250000 18.750000
v 15.000000 37.500000 -18.750000
v 6.186884 37.500000 0.000000
v 15.000000 37.500000 18.750000
v 15.000000 63.750000 -18.750000
v 6.186884 63.750000 0.000000
v 15.000000 63.750000 18.750000
v -15.000000 11.250000 18.750000
v -15.000000 11.250000 0.000000
v -15.000000 11.250000 -18.750000
v -15.000000 37.500000 18.750000
v -15.000000 37.500000 0.000000
v -15.000000 37.500000 -18.750000
v -15.000000 63.750000 18.750000
v -15.000000 63.750000 0.000000
v -15.000000 63.750000 -18.750000
v 22.152239 -9.379663 -33.485477
v 22.152239 84.379662 33.485477
v 22.152239 -9.379663 33.485477
v 22.152239 84.379662 -33.485477
v 22.152239 14.060168 -33.485477
v 22.152239 37.500000 -33.485477
v 22.152239 60.939831 -33.485477
v 22.152239 14.060168 33.485477
v 22.152239 37.500000 33.485477
v 22.152239 60.939831 33.485477
v 1.544170 -9.379663 -16.742739
v 1.544170 -9.379663 0.000000
v 1.544170 -9.379663 16.742739
v 1.544170 84.379662 -16.742739
v 1.544170 84.379662 0.000000
v 1.544170 84.379662 16.742739
vn 0.2676 0.9055 -0.3294
vn 0.2743 -0.0000 0.9616
vn -0.6306 -0.0000 -0.7761
vn -0.3973 -0.7765 0.4890
vn 0.6306 -0.0000 -0.7761
vn -0.2444 -0.0000 -0.9697
vn -0.6306 -0.0000 0.7761
vn -1.0000 -0.0000 -0.0000
vn 0.6306 -0.0000 0.7761
vn 0.9050 -0.0000 0.4254
vn 0.9050 -0.0000 -0.4254
vn -0.3973 -0.7765 -0.4890
vn -0.5335 -0.8354 -0.1325
vn -0.5335 -0.8354 0.1325
vn 0.2676 0.9055 0.3294
vn 0.3217 0.9469 -0.0000
vn -0.5335 0.8354 0.1325
vn -0.5335 0.8354 -0.1325
vn -0.3973 0.7765 -0.4890
vn 0.3217 -0.9469 -0.0000
vn 0.2676 -0.9055 0.3294
vn -0.2444 -0.0000 0.9697
vn 0.2743 -0.0000 -0.9616
vn 0.2676 -0.9055 -0.3294
vn -0.3973 0.7765 0.4890
vt 0.750000 0.687500
vt 0.875000 0.687500
vt 0.875000 0.750000
vt 0.750000 0.750000
vt 0.562500 0.875000
vt 0.625000 0.875000
vt 0.625000 1.000000
vt 0.562500 1.000000
vt 0.562500 0.187500
vt 0.625000 0.187500
vt 0.625000 0.250000
vt 0.562500 0.250000
vt 0.250000 0.687500
vt 0.375000 0.687500
vt 0.375000 0.750000
vt 0.250000 0.750000
vt 0.562500 0.687500
vt 0.625000 0.687500
vt 0.625000 0.750000
vt 0.562500 0.750000
vt 0.562500 0.375000
vt 0.625000 0.375000
vt 0.625000 0.500000
vt 0.562500 0.500000
vt 0.375000 0.375000
vt 0.437500 0.375000
vt 0.437500 0.500000
vt 0.375000 0.500000
vt 0.500000 0.375000
vt 0.500000 0.500000
vt 0.437500 0.687500
vt 0.437500 0.750000
vt 0.500000 0.687500
vt 0.500000 0.750000
vt 0.375000 0.187500
vt 0.437500 0.187500
vt 0.437500 0.250000
vt 0.375000 0.250000
vt 0.500000 0.187500
vt 0.500000 0.250000
vt 0.375000 0.875000
vt 0.437500 0.875000
vt 0.437500 1.000000
vt 0.375000 1.000000
vt 0.500000 0.875000
vt 0.500000 1.000000
vt 0.500000 0.000000
vt 0.562500 0.000000
vt 0.562500 0.062500
vt 0.500000 0.062500
vt 0.562500 0.125000
vt 0.500000 0.125000
vt 0.437500 0.000000
vt 0.437500 0.062500
vt 0.437500 0.125000
vt 0.375000 0.000000
vt 0.375000 0.062500
vt 0.375000 0.125000
vt 0.562500 0.562500
vt 0.500000 0.562500
vt 0.562500 0.625000
vt 0.500000 0.625000
vt 0.437500 0.562500
vt 0.437500 0.625000
vt 0.375000 0.562500
vt 0.375000 0.625000
vt 0.625000 0.562500
vt 0.625000 0.625000
vt 0.250000 0.500000
vt 0.250000 0.562500
vt 0.250000 0.625000
vt 0.625000 0.000000
vt 0.625000 0.062500
vt 0.625000 0.125000
vt 0.750000 0.500000
vt 0.875000 0.500000
vt 0.875000 0.562500
vt 0.750000 0.562500
vt 0.875000 0.625000
vt 0.750000 0.625000
vt 0.125000 0.625000
vt 0.125000 0.687500
vt 0.125000 0.562500
vt 0.125000 0.500000
vt 0.125000 0.750000
s 0
usemtl Material
f 66/1/1 27/2/1 7/3/1 52/4/1
f 60/5/2 52/6/2 7/7/2 14/8/2
f 50/9/3 29/10/3 5/11/3 18/12/3
f 63/13/4 30/14/4 4/15/4 53/16/4
f 41/17/5 26/18/5 3/19/5 15/20/5
f 57/21/6 54/22/6 1/23/6 9/24/6
f 51/25/6 55/26/6 11/27/6 2/28/6
f 55/26/6 56/29/6 10/30/6 11/27/6
f 56/29/6 57/21/6 9/24/6 10/30/6
f 30/14/5 35/31/5 17/32/5 4/15/5
f 35/31/5 38/33/5 16/34/5 17/32/5
f 38/33/5 41/17/5 15/20/5 16/34/5
f 21/35/3 44/36/3 20/37/3 6/38/3
f 44/36/3 47/39/3 19/40/3 20/37/3
f 47/39/3 50/9/3 18/12/3 19/40/3
f 53/41/2 58/42/2 12/43/2 8/44/2
f 58/42/2 59/45/2 13/46/2 12/43/2
f 59/45/2 60/5/2 14/8/2 13/46/2
f 13/47/7 14/48/7 48/49/7 45/50/7
f 45/50/8 48/49/8 49/51/8 46/52/8
f 46/52/8 49/51/8 50/9/8 47/39/8
f 12/53/7 13/47/7 45/50/7 42/54/7
f 42/54/8 45/50/8 46/52/8 43/55/8
f 43/55/8 46/52/8 47/39/8 44/36/8
f 8/56/7 12/53/7 42/54/7 23/57/7
f 23/57/8 42/54/8 43/55/8 22/58/8
f 22/58/8 43/55/8 44/36/8 21/35/8
f 10/30/9 9/24/9 39/59/9 36/60/9
f 36/60/10 39/59/10 40/61/10 37/62/10
f 37/62/11 40/61/11 41/17/11 38/33/11
f 11/27/9 10/30/9 36/60/9 33/63/9
f 33/63/10 36/60/10 37/62/10 34/64/10
f 34/64/11 37/62/11 38/33/11 35/31/11
f 2/28/9 11/27/9 33/63/9 32/65/9
f 32/65/10 33/63/10 34/64/10 31/66/10
f 31/66/11 34/64/11 35/31/11 30/14/11
f 9/24/9 1/23/9 24/67/9 39/59/9
f 39/59/10 24/67/10 25/68/10 40/61/10
f 40/61/11 25/68/11 26/18/11 41/17/11
f 51/69/12 2/28/12 32/65/12 61/70/12
f 61/70/13 32/65/13 31/66/13 62/71/13
f 62/71/14 31/66/14 30/14/14 63/13/14
f 14/48/7 7/72/7 27/73/7 48/49/7
f 48/49/8 27/73/8 28/74/8 49/51/8
f 49/51/8 28/74/8 29/10/8 50/9/8
f 54/75/15 5/76/15 29/77/15 64/78/15
f 64/78/16 29/77/16 28/79/16 65/80/16
f 65/80/16 28/79/16 27/2/16 66/1/16
f 25/68/17 65/80/17 66/1/17 26/18/17
f 24/67/18 64/78/18 65/80/18 25/68/18
f 1/23/19 54/75/19 64/78/19 24/67/19
f 22/81/20 62/71/20 63/13/20 23/82/20
f 21/83/20 61/70/20 62/71/20 22/81/20
f 6/84/21 51/69/21 61/70/21 21/83/21
f 16/34/22 15/20/22 60/5/22 59/45/22
f 17/32/22 16/34/22 59/45/22 58/42/22
f 4/15/22 17/32/22 58/42/22 53/41/22
f 19/40/23 18/12/23 57/21/23 56/29/23
f 20/37/23 19/40/23 56/29/23 55/26/23
f 6/38/23 20/37/23 55/26/23 51/25/23
f 18/12/23 5/11/23 54/22/23 57/21/23
f 23/82/24 63/13/24 53/16/24 8/85/24
f 15/20/22 3/19/22 52/6/22 60/5/22
f 26/18/25 66/1/25 52/4/25 3/19/25
